<mxfile host="app.diagrams.net" modified="2023-09-22T15:38:40.804Z" agent="Mozilla/5.0 (Windows NT 10.0; Win64; x64) AppleWebKit/537.36 (KHTML, like Gecko) Chrome/117.0.0.0 Safari/537.36 Edg/117.0.2045.36" etag="SpWADZtFmRTUR4JZrjEJ" version="21.7.5" type="github">
  <diagram name="Page-1" id="Csa7pxaQarw_l8LM6HaA">
    <mxGraphModel dx="2084" dy="2170" grid="1" gridSize="10" guides="1" tooltips="1" connect="1" arrows="1" fold="1" page="1" pageScale="1" pageWidth="850" pageHeight="1100" math="0" shadow="0">
      <root>
        <mxCell id="0" />
        <mxCell id="1" parent="0" />
        <mxCell id="3KPnmuKeQcaT3rE72Kjd-6" value="" style="whiteSpace=wrap;html=1;aspect=fixed;fillColor=#f5f5f5;fontColor=#333333;strokeColor=#666666;" vertex="1" parent="1">
          <mxGeometry x="410" y="1330" width="610" height="610" as="geometry" />
        </mxCell>
        <mxCell id="dK1LLXXqNewjSdYJ9ix--1" value="Người dùng" style="shape=umlActor;verticalLabelPosition=bottom;verticalAlign=top;html=1;outlineConnect=0;fontSize=24;" parent="1" vertex="1">
          <mxGeometry x="60" y="350" width="120" height="210" as="geometry" />
        </mxCell>
        <mxCell id="dK1LLXXqNewjSdYJ9ix--2" value="Quên mật khẩu&amp;nbsp;" style="ellipse;whiteSpace=wrap;html=1;fontSize=20;" parent="1" vertex="1">
          <mxGeometry x="360" y="85" width="150" height="100" as="geometry" />
        </mxCell>
        <mxCell id="dK1LLXXqNewjSdYJ9ix--3" value="Xem danh sách sản phẩm" style="ellipse;whiteSpace=wrap;html=1;fontSize=20;" parent="1" vertex="1">
          <mxGeometry x="420" y="270" width="150" height="80" as="geometry" />
        </mxCell>
        <mxCell id="dK1LLXXqNewjSdYJ9ix--7" value="Xem&amp;nbsp; sản phẩm chi tiết" style="ellipse;whiteSpace=wrap;html=1;fontSize=20;" parent="1" vertex="1">
          <mxGeometry x="390" y="380" width="150" height="80" as="geometry" />
        </mxCell>
        <mxCell id="dK1LLXXqNewjSdYJ9ix--8" value="Tìm sản phẩm&amp;nbsp;" style="ellipse;whiteSpace=wrap;html=1;fontSize=20;" parent="1" vertex="1">
          <mxGeometry x="381" y="505" width="150" height="80" as="geometry" />
        </mxCell>
        <mxCell id="dK1LLXXqNewjSdYJ9ix--9" value="Đăng nhập" style="ellipse;whiteSpace=wrap;html=1;fontSize=20;" parent="1" vertex="1">
          <mxGeometry x="645" y="760" width="150" height="80" as="geometry" />
        </mxCell>
        <mxCell id="dK1LLXXqNewjSdYJ9ix--13" value="Đăng kí&amp;nbsp;" style="ellipse;whiteSpace=wrap;html=1;fontSize=20;" parent="1" vertex="1">
          <mxGeometry x="351" y="760" width="150" height="80" as="geometry" />
        </mxCell>
        <mxCell id="dK1LLXXqNewjSdYJ9ix--20" value="" style="whiteSpace=wrap;html=1;aspect=fixed;" parent="1" vertex="1">
          <mxGeometry x="530" y="-930" width="700" height="700" as="geometry" />
        </mxCell>
        <mxCell id="dK1LLXXqNewjSdYJ9ix--32" style="edgeStyle=orthogonalEdgeStyle;rounded=0;orthogonalLoop=1;jettySize=auto;html=1;entryX=0;entryY=0.5;entryDx=0;entryDy=0;exitX=0.5;exitY=0;exitDx=0;exitDy=0;exitPerimeter=0;" parent="1" source="3KPnmuKeQcaT3rE72Kjd-1" target="dK1LLXXqNewjSdYJ9ix--21" edge="1">
          <mxGeometry relative="1" as="geometry">
            <mxPoint x="230" y="-600" as="sourcePoint" />
          </mxGeometry>
        </mxCell>
        <mxCell id="dK1LLXXqNewjSdYJ9ix--34" value="&lt;font style=&quot;font-size: 24px;&quot;&gt;1.Yêu cầu.&lt;/font&gt;" style="edgeLabel;html=1;align=center;verticalAlign=middle;resizable=0;points=[];" parent="dK1LLXXqNewjSdYJ9ix--32" vertex="1" connectable="0">
          <mxGeometry x="0.4495" y="4" relative="1" as="geometry">
            <mxPoint as="offset" />
          </mxGeometry>
        </mxCell>
        <mxCell id="dK1LLXXqNewjSdYJ9ix--33" style="edgeStyle=orthogonalEdgeStyle;rounded=0;orthogonalLoop=1;jettySize=auto;html=1;exitX=0;exitY=0.5;exitDx=0;exitDy=0;" parent="1" source="dK1LLXXqNewjSdYJ9ix--22" target="3KPnmuKeQcaT3rE72Kjd-1" edge="1">
          <mxGeometry relative="1" as="geometry">
            <mxPoint x="230" y="-520" as="targetPoint" />
          </mxGeometry>
        </mxCell>
        <mxCell id="dK1LLXXqNewjSdYJ9ix--49" value="&lt;font style=&quot;font-size: 24px;&quot;&gt;8.Phản hồi&lt;/font&gt;" style="edgeLabel;html=1;align=center;verticalAlign=middle;resizable=0;points=[];" parent="dK1LLXXqNewjSdYJ9ix--33" vertex="1" connectable="0">
          <mxGeometry x="0.4798" relative="1" as="geometry">
            <mxPoint x="195" y="-10" as="offset" />
          </mxGeometry>
        </mxCell>
        <mxCell id="dK1LLXXqNewjSdYJ9ix--35" style="edgeStyle=orthogonalEdgeStyle;rounded=0;orthogonalLoop=1;jettySize=auto;html=1;" parent="1" source="dK1LLXXqNewjSdYJ9ix--21" target="dK1LLXXqNewjSdYJ9ix--23" edge="1">
          <mxGeometry relative="1" as="geometry" />
        </mxCell>
        <mxCell id="dK1LLXXqNewjSdYJ9ix--21" value="&lt;font style=&quot;font-size: 24px;&quot;&gt;Routing&lt;/font&gt;" style="ellipse;whiteSpace=wrap;html=1;fillColor=#ffe6cc;strokeColor=#d79b00;" parent="1" vertex="1">
          <mxGeometry x="600" y="-760" width="120" height="80" as="geometry" />
        </mxCell>
        <mxCell id="dK1LLXXqNewjSdYJ9ix--22" value="View" style="ellipse;whiteSpace=wrap;html=1;fontSize=24;fillColor=#e1d5e7;strokeColor=#9673a6;" parent="1" vertex="1">
          <mxGeometry x="600" y="-450" width="120" height="80" as="geometry" />
        </mxCell>
        <mxCell id="dK1LLXXqNewjSdYJ9ix--36" style="edgeStyle=orthogonalEdgeStyle;rounded=0;orthogonalLoop=1;jettySize=auto;html=1;" parent="1" source="dK1LLXXqNewjSdYJ9ix--23" target="dK1LLXXqNewjSdYJ9ix--22" edge="1">
          <mxGeometry relative="1" as="geometry" />
        </mxCell>
        <mxCell id="dK1LLXXqNewjSdYJ9ix--23" value="Controller" style="ellipse;whiteSpace=wrap;html=1;fontSize=24;fillColor=#d5e8d4;strokeColor=#82b366;" parent="1" vertex="1">
          <mxGeometry x="600" y="-600" width="120" height="80" as="geometry" />
        </mxCell>
        <mxCell id="dK1LLXXqNewjSdYJ9ix--25" value="Model" style="ellipse;whiteSpace=wrap;html=1;fontSize=24;fillColor=#dae8fc;strokeColor=#6c8ebf;" parent="1" vertex="1">
          <mxGeometry x="950" y="-600" width="120" height="80" as="geometry" />
        </mxCell>
        <mxCell id="dK1LLXXqNewjSdYJ9ix--41" value="" style="endArrow=classic;html=1;rounded=0;exitX=1;exitY=0;exitDx=0;exitDy=0;entryX=0;entryY=0;entryDx=0;entryDy=0;" parent="1" source="dK1LLXXqNewjSdYJ9ix--23" target="dK1LLXXqNewjSdYJ9ix--25" edge="1">
          <mxGeometry x="0.1131" width="50" height="50" relative="1" as="geometry">
            <mxPoint x="760" y="-650" as="sourcePoint" />
            <mxPoint x="810" y="-700" as="targetPoint" />
            <mxPoint as="offset" />
          </mxGeometry>
        </mxCell>
        <mxCell id="dK1LLXXqNewjSdYJ9ix--43" value="3.Tin nhắn" style="edgeLabel;html=1;align=center;verticalAlign=middle;resizable=0;points=[];fontSize=24;" parent="dK1LLXXqNewjSdYJ9ix--41" vertex="1" connectable="0">
          <mxGeometry x="-0.0453" y="-1" relative="1" as="geometry">
            <mxPoint x="-1" as="offset" />
          </mxGeometry>
        </mxCell>
        <mxCell id="dK1LLXXqNewjSdYJ9ix--42" value="" style="endArrow=classic;html=1;rounded=0;entryX=1;entryY=1;entryDx=0;entryDy=0;exitX=0;exitY=1;exitDx=0;exitDy=0;" parent="1" source="dK1LLXXqNewjSdYJ9ix--25" target="dK1LLXXqNewjSdYJ9ix--23" edge="1">
          <mxGeometry width="50" height="50" relative="1" as="geometry">
            <mxPoint x="760" y="-650" as="sourcePoint" />
            <mxPoint x="810" y="-700" as="targetPoint" />
          </mxGeometry>
        </mxCell>
        <mxCell id="dK1LLXXqNewjSdYJ9ix--69" value="Kết quả" style="edgeLabel;html=1;align=center;verticalAlign=middle;resizable=0;points=[];fontSize=24;" parent="dK1LLXXqNewjSdYJ9ix--42" vertex="1" connectable="0">
          <mxGeometry x="0.1251" y="1" relative="1" as="geometry">
            <mxPoint x="-1" as="offset" />
          </mxGeometry>
        </mxCell>
        <mxCell id="dK1LLXXqNewjSdYJ9ix--44" value="" style="endArrow=classic;html=1;rounded=0;exitX=0.937;exitY=0.275;exitDx=0;exitDy=0;exitPerimeter=0;entryX=0;entryY=0.5;entryDx=0;entryDy=0;entryPerimeter=0;" parent="1" source="dK1LLXXqNewjSdYJ9ix--25" target="iRJZXSuGH4cgB7OpyZ8q-20" edge="1">
          <mxGeometry width="50" height="50" relative="1" as="geometry">
            <mxPoint x="760" y="-650" as="sourcePoint" />
            <mxPoint x="1297.573593128834" y="-588.2842712474442" as="targetPoint" />
          </mxGeometry>
        </mxCell>
        <mxCell id="dK1LLXXqNewjSdYJ9ix--71" value="4.MYSQL" style="edgeLabel;html=1;align=center;verticalAlign=middle;resizable=0;points=[];fontSize=24;" parent="dK1LLXXqNewjSdYJ9ix--44" vertex="1" connectable="0">
          <mxGeometry x="-0.007" y="-2" relative="1" as="geometry">
            <mxPoint as="offset" />
          </mxGeometry>
        </mxCell>
        <mxCell id="dK1LLXXqNewjSdYJ9ix--46" value="" style="endArrow=classic;html=1;rounded=0;entryX=1;entryY=1;entryDx=0;entryDy=0;exitX=0.145;exitY=1;exitDx=0;exitDy=-4.35;exitPerimeter=0;" parent="1" source="iRJZXSuGH4cgB7OpyZ8q-20" target="dK1LLXXqNewjSdYJ9ix--25" edge="1">
          <mxGeometry width="50" height="50" relative="1" as="geometry">
            <mxPoint x="1297.573593128834" y="-531.7157287525561" as="sourcePoint" />
            <mxPoint x="810" y="-700" as="targetPoint" />
          </mxGeometry>
        </mxCell>
        <mxCell id="dK1LLXXqNewjSdYJ9ix--75" value="Kết quả" style="edgeLabel;html=1;align=center;verticalAlign=middle;resizable=0;points=[];fontSize=24;" parent="dK1LLXXqNewjSdYJ9ix--46" vertex="1" connectable="0">
          <mxGeometry x="-0.0001" relative="1" as="geometry">
            <mxPoint as="offset" />
          </mxGeometry>
        </mxCell>
        <mxCell id="dK1LLXXqNewjSdYJ9ix--47" value="&lt;font style=&quot;font-size: 30px;&quot;&gt;Laravel&lt;/font&gt;" style="text;html=1;strokeColor=#d6b656;fillColor=#fff2cc;align=center;verticalAlign=middle;whiteSpace=wrap;rounded=0;fontStyle=1" parent="1" vertex="1">
          <mxGeometry x="785" y="-910" width="190" height="130" as="geometry" />
        </mxCell>
        <mxCell id="dK1LLXXqNewjSdYJ9ix--50" value="2.gửi đi" style="text;html=1;strokeColor=none;fillColor=none;align=center;verticalAlign=middle;whiteSpace=wrap;rounded=0;fontSize=24;" parent="1" vertex="1">
          <mxGeometry x="560" y="-660" width="95" height="30" as="geometry" />
        </mxCell>
        <mxCell id="dK1LLXXqNewjSdYJ9ix--62" value="" style="endArrow=classic;html=1;rounded=0;entryX=0;entryY=0.5;entryDx=0;entryDy=0;exitX=0.75;exitY=0.1;exitDx=0;exitDy=0;exitPerimeter=0;" parent="1" source="dK1LLXXqNewjSdYJ9ix--1" target="dK1LLXXqNewjSdYJ9ix--2" edge="1">
          <mxGeometry width="50" height="50" relative="1" as="geometry">
            <mxPoint x="350" y="550" as="sourcePoint" />
            <mxPoint x="400" y="500" as="targetPoint" />
          </mxGeometry>
        </mxCell>
        <mxCell id="dK1LLXXqNewjSdYJ9ix--64" value="" style="endArrow=classic;html=1;rounded=0;entryX=0.032;entryY=0.629;entryDx=0;entryDy=0;entryPerimeter=0;exitX=1;exitY=0.3333333333333333;exitDx=0;exitDy=0;exitPerimeter=0;" parent="1" source="dK1LLXXqNewjSdYJ9ix--1" target="dK1LLXXqNewjSdYJ9ix--3" edge="1">
          <mxGeometry width="50" height="50" relative="1" as="geometry">
            <mxPoint x="190" y="420" as="sourcePoint" />
            <mxPoint x="400" y="500" as="targetPoint" />
          </mxGeometry>
        </mxCell>
        <mxCell id="dK1LLXXqNewjSdYJ9ix--65" value="" style="endArrow=classic;html=1;rounded=0;entryX=0;entryY=0.5;entryDx=0;entryDy=0;exitX=1;exitY=0.3333333333333333;exitDx=0;exitDy=0;exitPerimeter=0;" parent="1" source="dK1LLXXqNewjSdYJ9ix--1" target="dK1LLXXqNewjSdYJ9ix--7" edge="1">
          <mxGeometry width="50" height="50" relative="1" as="geometry">
            <mxPoint x="180" y="480" as="sourcePoint" />
            <mxPoint x="400" y="500" as="targetPoint" />
          </mxGeometry>
        </mxCell>
        <mxCell id="dK1LLXXqNewjSdYJ9ix--66" value="" style="endArrow=classic;html=1;rounded=0;entryX=0;entryY=0.5;entryDx=0;entryDy=0;exitX=1;exitY=0.3333333333333333;exitDx=0;exitDy=0;exitPerimeter=0;" parent="1" source="dK1LLXXqNewjSdYJ9ix--1" target="dK1LLXXqNewjSdYJ9ix--8" edge="1">
          <mxGeometry width="50" height="50" relative="1" as="geometry">
            <mxPoint x="350" y="550" as="sourcePoint" />
            <mxPoint x="400" y="500" as="targetPoint" />
          </mxGeometry>
        </mxCell>
        <mxCell id="dK1LLXXqNewjSdYJ9ix--68" value="" style="endArrow=classic;html=1;rounded=0;entryX=0;entryY=0.5;entryDx=0;entryDy=0;exitX=1;exitY=1;exitDx=0;exitDy=0;exitPerimeter=0;" parent="1" source="dK1LLXXqNewjSdYJ9ix--1" target="dK1LLXXqNewjSdYJ9ix--13" edge="1">
          <mxGeometry width="50" height="50" relative="1" as="geometry">
            <mxPoint x="350" y="550" as="sourcePoint" />
            <mxPoint x="400" y="500" as="targetPoint" />
          </mxGeometry>
        </mxCell>
        <mxCell id="dK1LLXXqNewjSdYJ9ix--77" value="7.kết xuất" style="text;html=1;strokeColor=none;fillColor=none;align=center;verticalAlign=middle;whiteSpace=wrap;rounded=0;fontSize=24;" parent="1" vertex="1">
          <mxGeometry x="530" y="-500" width="125" height="30" as="geometry" />
        </mxCell>
        <mxCell id="iRJZXSuGH4cgB7OpyZ8q-1" value="Admin" style="shape=umlActor;verticalLabelPosition=bottom;verticalAlign=top;html=1;outlineConnect=0;" parent="1" vertex="1">
          <mxGeometry x="310" y="1637" width="30" height="60" as="geometry" />
        </mxCell>
        <mxCell id="iRJZXSuGH4cgB7OpyZ8q-4" value="Quản lý Sản phẩm" style="ellipse;whiteSpace=wrap;html=1;direction=west;" parent="1" vertex="1">
          <mxGeometry x="460" y="1390" width="120" height="80" as="geometry" />
        </mxCell>
        <mxCell id="iRJZXSuGH4cgB7OpyZ8q-5" value="Quản lý Đơn hàng" style="ellipse;whiteSpace=wrap;html=1;" parent="1" vertex="1">
          <mxGeometry x="470" y="1557" width="120" height="80" as="geometry" />
        </mxCell>
        <mxCell id="iRJZXSuGH4cgB7OpyZ8q-6" value="Quản lý Người dùng" style="ellipse;whiteSpace=wrap;html=1;direction=west;" parent="1" vertex="1">
          <mxGeometry x="480" y="1680" width="120" height="80" as="geometry" />
        </mxCell>
        <mxCell id="iRJZXSuGH4cgB7OpyZ8q-8" value="" style="endArrow=classic;html=1;rounded=0;entryX=1;entryY=0.5;entryDx=0;entryDy=0;" parent="1" source="iRJZXSuGH4cgB7OpyZ8q-1" target="iRJZXSuGH4cgB7OpyZ8q-4" edge="1">
          <mxGeometry width="50" height="50" relative="1" as="geometry">
            <mxPoint x="190" y="1550" as="sourcePoint" />
            <mxPoint x="390" y="1513" as="targetPoint" />
          </mxGeometry>
        </mxCell>
        <mxCell id="iRJZXSuGH4cgB7OpyZ8q-9" value="" style="endArrow=classic;html=1;rounded=0;exitX=0.5;exitY=0.5;exitDx=0;exitDy=0;exitPerimeter=0;" parent="1" source="iRJZXSuGH4cgB7OpyZ8q-1" target="iRJZXSuGH4cgB7OpyZ8q-5" edge="1">
          <mxGeometry width="50" height="50" relative="1" as="geometry">
            <mxPoint x="320" y="1627" as="sourcePoint" />
            <mxPoint x="120" y="1520" as="targetPoint" />
          </mxGeometry>
        </mxCell>
        <mxCell id="iRJZXSuGH4cgB7OpyZ8q-10" value="" style="endArrow=classic;html=1;rounded=0;entryX=1;entryY=0.5;entryDx=0;entryDy=0;" parent="1" source="iRJZXSuGH4cgB7OpyZ8q-1" target="iRJZXSuGH4cgB7OpyZ8q-6" edge="1">
          <mxGeometry width="50" height="50" relative="1" as="geometry">
            <mxPoint x="335" y="1635" as="sourcePoint" />
            <mxPoint x="130" y="1627" as="targetPoint" />
          </mxGeometry>
        </mxCell>
        <mxCell id="iRJZXSuGH4cgB7OpyZ8q-11" value="&lt;br style=&quot;border-color: var(--border-color);&quot;&gt;&lt;br style=&quot;border-color: var(--border-color);&quot;&gt;&lt;br style=&quot;border-color: var(--border-color);&quot;&gt;&lt;p style=&quot;border-color: var(--border-color); line-height: 18px;&quot; class=&quot;h3sdashlist&quot;&gt;&lt;span style=&quot;border-color: var(--border-color); font-family: Tahoma, sans-serif;&quot; lang=&quot;VI&quot;&gt;&lt;/span&gt;Quản lý danh mục&lt;/p&gt;&lt;br style=&quot;border-color: var(--border-color);&quot;&gt;&lt;br style=&quot;border-color: var(--border-color);&quot;&gt;&lt;br style=&quot;border-color: var(--border-color);&quot;&gt;" style="ellipse;whiteSpace=wrap;html=1;direction=west;" parent="1" vertex="1">
          <mxGeometry x="480" y="1810" width="120" height="80" as="geometry" />
        </mxCell>
        <mxCell id="iRJZXSuGH4cgB7OpyZ8q-12" value="" style="endArrow=classic;html=1;rounded=0;entryX=1;entryY=0.5;entryDx=0;entryDy=0;exitX=1;exitY=1;exitDx=0;exitDy=0;exitPerimeter=0;" parent="1" source="iRJZXSuGH4cgB7OpyZ8q-1" target="iRJZXSuGH4cgB7OpyZ8q-11" edge="1">
          <mxGeometry width="50" height="50" relative="1" as="geometry">
            <mxPoint x="320" y="1665" as="sourcePoint" />
            <mxPoint x="130" y="1740" as="targetPoint" />
          </mxGeometry>
        </mxCell>
        <mxCell id="iRJZXSuGH4cgB7OpyZ8q-20" value="&#xa;&lt;span style=&quot;color: rgb(0, 0, 0); font-family: Helvetica; font-size: 24px; font-style: normal; font-variant-ligatures: normal; font-variant-caps: normal; font-weight: 400; letter-spacing: normal; orphans: 2; text-align: center; text-indent: 0px; text-transform: none; widows: 2; word-spacing: 0px; -webkit-text-stroke-width: 0px; background-color: rgb(251, 251, 251); text-decoration-thickness: initial; text-decoration-style: initial; text-decoration-color: initial; float: none; display: inline !important;&quot;&gt;MYSQL&lt;/span&gt;&lt;br style=&quot;border-color: var(--border-color); color: rgb(0, 0, 0); font-family: Helvetica; font-size: 24px; font-style: normal; font-variant-ligatures: normal; font-variant-caps: normal; font-weight: 400; letter-spacing: normal; orphans: 2; text-align: center; text-indent: 0px; text-transform: none; widows: 2; word-spacing: 0px; -webkit-text-stroke-width: 0px; background-color: rgb(251, 251, 251); text-decoration-thickness: initial; text-decoration-style: initial; text-decoration-color: initial;&quot;&gt;&lt;span style=&quot;color: rgb(0, 0, 0); font-family: Helvetica; font-size: 24px; font-style: normal; font-variant-ligatures: normal; font-variant-caps: normal; font-weight: 400; letter-spacing: normal; orphans: 2; text-align: center; text-indent: 0px; text-transform: none; widows: 2; word-spacing: 0px; -webkit-text-stroke-width: 0px; background-color: rgb(251, 251, 251); text-decoration-thickness: initial; text-decoration-style: initial; text-decoration-color: initial; float: none; display: inline !important;&quot;&gt;database&lt;/span&gt;&#xa;&#xa;" style="shape=cylinder3;whiteSpace=wrap;html=1;boundedLbl=1;backgroundOutline=1;size=15;fillColor=#fff2cc;strokeColor=#d6b656;" parent="1" vertex="1">
          <mxGeometry x="1280" y="-660" width="120" height="170" as="geometry" />
        </mxCell>
        <mxCell id="3KPnmuKeQcaT3rE72Kjd-1" value="Người dùng&amp;nbsp;&amp;nbsp;" style="shape=umlActor;verticalLabelPosition=bottom;verticalAlign=top;html=1;outlineConnect=0;" vertex="1" parent="1">
          <mxGeometry x="150" y="-670" width="70" height="140" as="geometry" />
        </mxCell>
        <mxCell id="3KPnmuKeQcaT3rE72Kjd-23" value="&lt;font style=&quot;font-size: 20px;&quot;&gt;Khôi phục mật khẩu bằng email&lt;/font&gt;" style="ellipse;whiteSpace=wrap;html=1;" vertex="1" parent="1">
          <mxGeometry x="640" y="55" width="260" height="130" as="geometry" />
        </mxCell>
        <mxCell id="3KPnmuKeQcaT3rE72Kjd-24" value="" style="endArrow=block;dashed=1;endFill=0;endSize=12;html=1;rounded=0;exitX=1;exitY=0.5;exitDx=0;exitDy=0;entryX=0;entryY=0.5;entryDx=0;entryDy=0;" edge="1" parent="1" source="dK1LLXXqNewjSdYJ9ix--2" target="3KPnmuKeQcaT3rE72Kjd-23">
          <mxGeometry width="160" relative="1" as="geometry">
            <mxPoint x="620" y="390" as="sourcePoint" />
            <mxPoint x="780" y="390" as="targetPoint" />
          </mxGeometry>
        </mxCell>
        <mxCell id="3KPnmuKeQcaT3rE72Kjd-26" value="" style="endArrow=classic;html=1;rounded=0;exitX=1;exitY=0.5;exitDx=0;exitDy=0;entryX=0;entryY=0.5;entryDx=0;entryDy=0;" edge="1" parent="1" source="dK1LLXXqNewjSdYJ9ix--13" target="dK1LLXXqNewjSdYJ9ix--9">
          <mxGeometry width="50" height="50" relative="1" as="geometry">
            <mxPoint x="670" y="740" as="sourcePoint" />
            <mxPoint x="720" y="690" as="targetPoint" />
          </mxGeometry>
        </mxCell>
        <mxCell id="3KPnmuKeQcaT3rE72Kjd-28" value="Xem sản phẩm theo loại sp" style="ellipse;whiteSpace=wrap;html=1;fontSize=20;" vertex="1" parent="1">
          <mxGeometry x="710" y="260" width="150" height="80" as="geometry" />
        </mxCell>
        <mxCell id="3KPnmuKeQcaT3rE72Kjd-32" value="" style="html=1;verticalAlign=bottom;labelBackgroundColor=none;endArrow=open;endFill=0;dashed=1;rounded=0;entryX=0;entryY=0.5;entryDx=0;entryDy=0;exitX=1;exitY=0.5;exitDx=0;exitDy=0;" edge="1" parent="1" source="dK1LLXXqNewjSdYJ9ix--3" target="3KPnmuKeQcaT3rE72Kjd-28">
          <mxGeometry width="160" relative="1" as="geometry">
            <mxPoint x="620" y="380" as="sourcePoint" />
            <mxPoint x="780" y="380" as="targetPoint" />
          </mxGeometry>
        </mxCell>
        <mxCell id="3KPnmuKeQcaT3rE72Kjd-33" value="Xem danh sách sản phẩm tìm kiếm" style="ellipse;whiteSpace=wrap;html=1;fontSize=20;" vertex="1" parent="1">
          <mxGeometry x="630" y="570" width="180" height="90" as="geometry" />
        </mxCell>
        <mxCell id="3KPnmuKeQcaT3rE72Kjd-34" value="Xem lịch sử tìm kiem" style="ellipse;whiteSpace=wrap;html=1;fontSize=20;" vertex="1" parent="1">
          <mxGeometry x="660" y="450" width="150" height="80" as="geometry" />
        </mxCell>
        <mxCell id="3KPnmuKeQcaT3rE72Kjd-35" value="&lt;font style=&quot;font-size: 18px;&quot;&gt;&amp;lt;&amp;lt;extend&amp;gt;&amp;gt;&lt;/font&gt;" style="html=1;verticalAlign=bottom;labelBackgroundColor=none;endArrow=open;endFill=0;dashed=1;rounded=0;entryX=0.088;entryY=0.217;entryDx=0;entryDy=0;entryPerimeter=0;exitX=0.907;exitY=0.822;exitDx=0;exitDy=0;exitPerimeter=0;" edge="1" parent="1" source="dK1LLXXqNewjSdYJ9ix--8" target="3KPnmuKeQcaT3rE72Kjd-33">
          <mxGeometry width="160" relative="1" as="geometry">
            <mxPoint x="550" y="620" as="sourcePoint" />
            <mxPoint x="780" y="350" as="targetPoint" />
          </mxGeometry>
        </mxCell>
        <mxCell id="3KPnmuKeQcaT3rE72Kjd-36" value="&lt;font style=&quot;font-size: 18px;&quot;&gt;&amp;lt;&amp;lt;extend&amp;gt;&amp;gt;&lt;/font&gt;" style="html=1;verticalAlign=bottom;labelBackgroundColor=none;endArrow=open;endFill=0;dashed=1;rounded=0;exitX=1;exitY=0.5;exitDx=0;exitDy=0;entryX=0.008;entryY=0.597;entryDx=0;entryDy=0;entryPerimeter=0;" edge="1" parent="1" source="dK1LLXXqNewjSdYJ9ix--8" target="3KPnmuKeQcaT3rE72Kjd-34">
          <mxGeometry width="160" relative="1" as="geometry">
            <mxPoint x="620" y="350" as="sourcePoint" />
            <mxPoint x="600" y="490" as="targetPoint" />
          </mxGeometry>
        </mxCell>
        <mxCell id="3KPnmuKeQcaT3rE72Kjd-41" value="Thêm sản phẩm vào danh sách yêu thích" style="ellipse;whiteSpace=wrap;html=1;fontSize=20;" vertex="1" parent="1">
          <mxGeometry x="990" y="460" width="180" height="90" as="geometry" />
        </mxCell>
        <mxCell id="3KPnmuKeQcaT3rE72Kjd-42" value="Thêm sản phẩm vào giỏ hàng" style="ellipse;whiteSpace=wrap;html=1;fontSize=20;" vertex="1" parent="1">
          <mxGeometry x="1090" y="870" width="180" height="90" as="geometry" />
        </mxCell>
        <mxCell id="3KPnmuKeQcaT3rE72Kjd-43" value="Quản lý thông tin tài khoản" style="ellipse;whiteSpace=wrap;html=1;fontSize=20;" vertex="1" parent="1">
          <mxGeometry x="830" y="840" width="180" height="90" as="geometry" />
        </mxCell>
        <mxCell id="3KPnmuKeQcaT3rE72Kjd-44" value="Xem sản phẩm chi tiết" style="ellipse;whiteSpace=wrap;html=1;fontSize=20;" vertex="1" parent="1">
          <mxGeometry x="830" y="640" width="180" height="90" as="geometry" />
        </mxCell>
        <mxCell id="3KPnmuKeQcaT3rE72Kjd-46" value="Thanh Toán" style="ellipse;whiteSpace=wrap;html=1;fontSize=20;" vertex="1" parent="1">
          <mxGeometry x="1420" y="860" width="180" height="90" as="geometry" />
        </mxCell>
        <mxCell id="3KPnmuKeQcaT3rE72Kjd-47" value="Theo dõi đơn hàng" style="ellipse;whiteSpace=wrap;html=1;fontSize=20;" vertex="1" parent="1">
          <mxGeometry x="1470" y="650" width="180" height="90" as="geometry" />
        </mxCell>
        <mxCell id="3KPnmuKeQcaT3rE72Kjd-48" value="Đánh giá sản phẩm sau khi mua hàng" style="ellipse;whiteSpace=wrap;html=1;fontSize=20;" vertex="1" parent="1">
          <mxGeometry x="1220" y="660" width="180" height="90" as="geometry" />
        </mxCell>
        <mxCell id="3KPnmuKeQcaT3rE72Kjd-50" value="&lt;font style=&quot;font-size: 18px;&quot;&gt;&amp;lt;&amp;lt;include&amp;gt;&amp;gt;&lt;/font&gt;" style="html=1;verticalAlign=bottom;labelBackgroundColor=none;endArrow=open;endFill=0;dashed=1;rounded=0;exitX=1;exitY=0;exitDx=0;exitDy=0;entryX=0;entryY=0.5;entryDx=0;entryDy=0;" edge="1" parent="1" source="dK1LLXXqNewjSdYJ9ix--9" target="3KPnmuKeQcaT3rE72Kjd-44">
          <mxGeometry width="160" relative="1" as="geometry">
            <mxPoint x="910" y="690" as="sourcePoint" />
            <mxPoint x="1070" y="690" as="targetPoint" />
          </mxGeometry>
        </mxCell>
        <mxCell id="3KPnmuKeQcaT3rE72Kjd-52" value="&lt;font style=&quot;font-size: 18px;&quot;&gt;&amp;lt;&amp;lt;include&amp;gt;&amp;gt;&lt;/font&gt;" style="html=1;verticalAlign=bottom;labelBackgroundColor=none;endArrow=open;endFill=0;dashed=1;rounded=0;" edge="1" parent="1" target="3KPnmuKeQcaT3rE72Kjd-43">
          <mxGeometry width="160" relative="1" as="geometry">
            <mxPoint x="780" y="820" as="sourcePoint" />
            <mxPoint x="840" y="695" as="targetPoint" />
          </mxGeometry>
        </mxCell>
        <mxCell id="3KPnmuKeQcaT3rE72Kjd-53" value="&lt;font style=&quot;font-size: 18px;&quot;&gt;&amp;lt;&amp;lt;extend&amp;gt;&amp;gt;&lt;/font&gt;" style="html=1;verticalAlign=bottom;labelBackgroundColor=none;endArrow=open;endFill=0;dashed=1;rounded=0;exitX=0.806;exitY=0.084;exitDx=0;exitDy=0;exitPerimeter=0;" edge="1" parent="1" source="3KPnmuKeQcaT3rE72Kjd-46" target="3KPnmuKeQcaT3rE72Kjd-47">
          <mxGeometry width="160" relative="1" as="geometry">
            <mxPoint x="1390" y="750" as="sourcePoint" />
            <mxPoint x="1519" y="769" as="targetPoint" />
          </mxGeometry>
        </mxCell>
        <mxCell id="3KPnmuKeQcaT3rE72Kjd-54" value="&lt;font style=&quot;font-size: 18px;&quot;&gt;&amp;lt;&amp;lt;extend&amp;gt;&amp;gt;&lt;/font&gt;" style="html=1;verticalAlign=bottom;labelBackgroundColor=none;endArrow=open;endFill=0;dashed=1;rounded=0;entryX=0;entryY=0.5;entryDx=0;entryDy=0;exitX=1;exitY=0.5;exitDx=0;exitDy=0;" edge="1" parent="1" source="3KPnmuKeQcaT3rE72Kjd-42" target="3KPnmuKeQcaT3rE72Kjd-46">
          <mxGeometry width="160" relative="1" as="geometry">
            <mxPoint x="1250" y="950" as="sourcePoint" />
            <mxPoint x="1379" y="969" as="targetPoint" />
          </mxGeometry>
        </mxCell>
        <mxCell id="3KPnmuKeQcaT3rE72Kjd-55" value="&lt;font style=&quot;font-size: 18px;&quot;&gt;&amp;lt;&amp;lt;extend&amp;gt;&amp;gt;&lt;/font&gt;" style="html=1;verticalAlign=bottom;labelBackgroundColor=none;endArrow=open;endFill=0;dashed=1;rounded=0;entryX=0.5;entryY=0;entryDx=0;entryDy=0;" edge="1" parent="1" source="3KPnmuKeQcaT3rE72Kjd-44" target="3KPnmuKeQcaT3rE72Kjd-42">
          <mxGeometry width="160" relative="1" as="geometry">
            <mxPoint x="821" y="780" as="sourcePoint" />
            <mxPoint x="950" y="799" as="targetPoint" />
          </mxGeometry>
        </mxCell>
        <mxCell id="3KPnmuKeQcaT3rE72Kjd-56" value="&lt;font style=&quot;font-size: 18px;&quot;&gt;&amp;lt;&amp;lt;extend&amp;gt;&amp;gt;&lt;/font&gt;" style="html=1;verticalAlign=bottom;labelBackgroundColor=none;endArrow=open;endFill=0;dashed=1;rounded=0;entryX=0;entryY=0.5;entryDx=0;entryDy=0;exitX=0.931;exitY=0.256;exitDx=0;exitDy=0;exitPerimeter=0;" edge="1" parent="1" source="3KPnmuKeQcaT3rE72Kjd-44" target="3KPnmuKeQcaT3rE72Kjd-41">
          <mxGeometry width="160" relative="1" as="geometry">
            <mxPoint x="1000" y="595" as="sourcePoint" />
            <mxPoint x="1129" y="614" as="targetPoint" />
          </mxGeometry>
        </mxCell>
        <mxCell id="3KPnmuKeQcaT3rE72Kjd-58" value="&lt;font style=&quot;font-size: 18px;&quot;&gt;&amp;lt;&amp;lt;extend&amp;gt;&amp;gt;&lt;/font&gt;" style="html=1;verticalAlign=bottom;labelBackgroundColor=none;endArrow=open;endFill=0;dashed=1;rounded=0;entryX=0.991;entryY=0.426;entryDx=0;entryDy=0;entryPerimeter=0;exitX=0;exitY=0.5;exitDx=0;exitDy=0;" edge="1" parent="1" source="3KPnmuKeQcaT3rE72Kjd-47" target="3KPnmuKeQcaT3rE72Kjd-48">
          <mxGeometry width="160" relative="1" as="geometry">
            <mxPoint x="1370" y="600" as="sourcePoint" />
            <mxPoint x="1499" y="619" as="targetPoint" />
          </mxGeometry>
        </mxCell>
      </root>
    </mxGraphModel>
  </diagram>
</mxfile>
